<svg width="16" height="22" viewBox="0 0 16 22" fill="none" xmlns="http://www.w3.org/2000/svg">
<path fill-rule="evenodd" clip-rule="evenodd" d="M8.594 21.3508L8.582 21.3528L8.511 21.3878L8.491 21.3918L8.477 21.3878L8.406 21.3518C8.39533 21.3491 8.38733 21.3511 8.382 21.3578L8.378 21.3678L8.361 21.7958L8.366 21.8158L8.376 21.8288L8.48 21.9028L8.495 21.9068L8.507 21.9028L8.611 21.8288L8.623 21.8128L8.627 21.7958L8.61 21.3688C8.60733 21.3581 8.602 21.3521 8.594 21.3508ZM8.858 21.2378L8.844 21.2398L8.66 21.3328L8.65 21.3428L8.647 21.3538L8.665 21.7838L8.67 21.7958L8.678 21.8038L8.879 21.8958C8.89167 21.8991 8.90133 21.8964 8.908 21.8878L8.912 21.8738L8.878 21.2598C8.87467 21.2471 8.868 21.2398 8.858 21.2378ZM8.143 21.2398C8.13859 21.2371 8.13333 21.2362 8.1283 21.2374C8.12327 21.2385 8.11886 21.2415 8.116 21.2458L8.11 21.2598L8.076 21.8738C8.07667 21.8858 8.08233 21.8938 8.093 21.8978L8.108 21.8958L8.309 21.8028L8.319 21.7948L8.322 21.7838L8.34 21.3538L8.337 21.3418L8.327 21.3318L8.143 21.2398Z" fill="#8A8A8A"/>
<path fill-rule="evenodd" clip-rule="evenodd" d="M3.416 1.09277C3.14117 1.72371 2.99955 2.40458 3 3.09277C3 3.62321 3.21071 4.13191 3.58579 4.50699C3.96086 4.88206 4.46957 5.09277 5 5.09277H11C11.5304 5.09277 12.0391 4.88206 12.4142 4.50699C12.7893 4.13191 13 3.62321 13 3.09277C13 2.38177 12.852 1.70477 12.584 1.09277H14C14.5304 1.09277 15.0391 1.30349 15.4142 1.67856C15.7893 2.05363 16 2.56234 16 3.09277V18.0928C16 18.6232 15.7893 19.1319 15.4142 19.507C15.0391 19.8821 14.5304 20.0928 14 20.0928H2C1.46957 20.0928 0.960859 19.8821 0.585786 19.507C0.210714 19.1319 0 18.6232 0 18.0928V3.09277C0 2.56234 0.210714 2.05363 0.585786 1.67856C0.960859 1.30349 1.46957 1.09277 2 1.09277H3.416ZM8 12.0928H5C4.73478 12.0928 4.48043 12.1981 4.29289 12.3857C4.10536 12.5732 4 12.8276 4 13.0928C4 13.358 4.10536 13.6123 4.29289 13.7999C4.48043 13.9874 4.73478 14.0928 5 14.0928H8C8.26522 14.0928 8.51957 13.9874 8.70711 13.7999C8.89464 13.6123 9 13.358 9 13.0928C9 12.8276 8.89464 12.5732 8.70711 12.3857C8.51957 12.1981 8.26522 12.0928 8 12.0928ZM11 8.09277H5C4.74512 8.09306 4.49997 8.19065 4.31463 8.36562C4.1293 8.54059 4.01776 8.77973 4.00283 9.03417C3.98789 9.28861 4.07067 9.53915 4.23426 9.73461C4.39785 9.93006 4.6299 10.0557 4.883 10.0858L5 10.0928H11C11.2652 10.0928 11.5196 9.98742 11.7071 9.79988C11.8946 9.61234 12 9.35799 12 9.09277C12 8.82756 11.8946 8.5732 11.7071 8.38567C11.5196 8.19813 11.2652 8.09277 11 8.09277ZM8 0.0927734C8.42208 0.092783 8.83941 0.181857 9.22471 0.354175C9.61001 0.526492 9.95461 0.778174 10.236 1.09277C10.664 1.57077 10.94 2.18577 10.991 2.86477L11 3.09277H5C5 2.36777 5.257 1.70277 5.685 1.18477L5.764 1.09277C6.314 0.478773 7.112 0.0927734 8 0.0927734Z" fill="#8A8A8A"/>
</svg>
