<svg width="28" height="28" viewBox="0 0 28 28" fill="none" xmlns="http://www.w3.org/2000/svg">
<path d="M15.25 22.5313V26.5C15.25 26.8542 15.13 27.1513 14.89 27.3913C14.65 27.6313 14.3533 27.7508 14 27.75C13.6467 27.7492 13.35 27.6292 13.11 27.39C12.87 27.1508 12.75 26.8542 12.75 26.5V22.5313L12.25 23.0313C12.0208 23.2604 11.7346 23.375 11.3913 23.375C11.0479 23.375 10.7508 23.25 10.5 23C10.2708 22.7708 10.1563 22.4792 10.1563 22.125C10.1563 21.7708 10.2708 21.4792 10.5 21.25L13.125 18.625C13.375 18.375 13.6667 18.25 14 18.25C14.3333 18.25 14.625 18.375 14.875 18.625L17.5 21.25C17.7292 21.4792 17.8488 21.7658 17.8588 22.11C17.8688 22.4542 17.7492 22.7508 17.5 23C17.2708 23.2292 16.9846 23.3492 16.6413 23.36C16.2979 23.3708 16.0008 23.2613 15.75 23.0313L15.25 22.5313ZM5.46875 15.25H1.5C1.14584 15.25 0.849171 15.13 0.610004 14.89C0.370838 14.65 0.250838 14.3533 0.250004 14C0.249171 13.6467 0.369171 13.35 0.610004 13.11C0.850838 12.87 1.1475 12.75 1.5 12.75H5.46875L4.96875 12.25C4.73959 12.0208 4.625 11.7346 4.625 11.3913C4.625 11.0479 4.75 10.7508 5 10.5C5.22917 10.2708 5.52084 10.1563 5.875 10.1563C6.22917 10.1563 6.52084 10.2708 6.75 10.5L9.375 13.125C9.625 13.375 9.75 13.6667 9.75 14C9.75 14.3333 9.625 14.625 9.375 14.875L6.75 17.5C6.52084 17.7292 6.23459 17.8488 5.89125 17.8588C5.54792 17.8688 5.25084 17.7492 5 17.5C4.77084 17.2708 4.65125 16.9846 4.64125 16.6413C4.63125 16.2979 4.74042 16.0008 4.96875 15.75L5.46875 15.25ZM22.5313 15.25L23.0313 15.75C23.2604 15.9792 23.375 16.2658 23.375 16.61C23.375 16.9542 23.25 17.2508 23 17.5C22.7708 17.7292 22.4792 17.8438 22.125 17.8438C21.7708 17.8438 21.4792 17.7292 21.25 17.5L18.625 14.875C18.375 14.625 18.25 14.3333 18.25 14C18.25 13.6667 18.375 13.375 18.625 13.125L21.25 10.5C21.4792 10.2708 21.7658 10.1513 22.11 10.1413C22.4542 10.1313 22.7508 10.2508 23 10.5C23.2292 10.7292 23.3492 11.0158 23.36 11.36C23.3708 11.7042 23.2613 12.0008 23.0313 12.25L22.5313 12.75H26.5C26.8542 12.75 27.1513 12.87 27.3913 13.11C27.6313 13.35 27.7508 13.6467 27.75 14C27.7492 14.3533 27.6292 14.6504 27.39 14.8913C27.1508 15.1321 26.8542 15.2517 26.5 15.25H22.5313ZM14 15.875C13.4792 15.875 13.0367 15.6929 12.6725 15.3288C12.3083 14.9646 12.1258 14.5217 12.125 14C12.1242 13.4783 12.3067 13.0358 12.6725 12.6725C13.0383 12.3092 13.4808 12.1267 14 12.125C14.5192 12.1233 14.9621 12.3058 15.3288 12.6725C15.6954 13.0392 15.8775 13.4817 15.875 14C15.8725 14.5183 15.6904 14.9613 15.3288 15.3288C14.9671 15.6963 14.5242 15.8783 14 15.875ZM12.75 5.46875V1.5C12.75 1.14584 12.87 0.849171 13.11 0.610004C13.35 0.370838 13.6467 0.250838 14 0.250004C14.3533 0.249171 14.6504 0.369171 14.8913 0.610004C15.1321 0.850838 15.2517 1.1475 15.25 1.5V5.46875L15.75 4.96875C15.9792 4.73959 16.2658 4.625 16.61 4.625C16.9542 4.625 17.2508 4.75 17.5 5C17.7292 5.22917 17.8438 5.52084 17.8438 5.875C17.8438 6.22917 17.7292 6.52084 17.5 6.75L14.875 9.375C14.625 9.625 14.3333 9.75 14 9.75C13.6667 9.75 13.375 9.625 13.125 9.375L10.5 6.75C10.2708 6.52084 10.1513 6.23459 10.1413 5.89125C10.1313 5.54792 10.2508 5.25084 10.5 5C10.7292 4.77084 11.0158 4.65125 11.36 4.64125C11.7042 4.63125 12.0008 4.74042 12.25 4.96875L12.75 5.46875Z" fill="#131313"/>
</svg>
