<svg width="54" height="38" viewBox="0 0 54 38" fill="none" xmlns="http://www.w3.org/2000/svg">
<path fill-rule="evenodd" clip-rule="evenodd" d="M13.7426 5.7421C16.3081 3.1764 19.563 1.4102 23.1125 0.657688C26.6619 -0.0948203 30.3535 0.198693 33.7394 1.50263C37.1254 2.80657 40.0603 5.06492 42.1882 8.00379C44.3161 10.9427 45.5456 14.4358 45.7276 18.0596C48.0814 18.6696 50.1325 20.1159 51.4975 22.1283C52.8625 24.1406 53.4479 26.5811 53.1443 28.9937C52.8408 31.4062 51.669 33.6257 49.8481 35.2371C48.0271 36.8486 45.6816 37.7417 43.2501 37.7496H13.2501C10.3001 37.7514 7.44454 36.7098 5.18853 34.8091C2.93251 32.9084 1.42141 30.2711 0.922511 27.3636C0.423617 24.4561 0.969082 21.4659 2.46242 18.9218C3.95576 16.3778 6.30074 14.4438 9.08256 13.4621C9.98475 10.548 11.5843 7.89803 13.7426 5.7421ZM23.7676 14.7321C23.296 14.2767 22.6645 14.0247 22.0091 14.0304C21.3536 14.0361 20.7265 14.299 20.263 14.7626C19.7995 15.2261 19.5366 15.8531 19.5309 16.5086C19.5252 17.1641 19.7772 17.7956 20.2326 18.2671L23.4651 21.4996L20.2326 24.7321C19.9938 24.9627 19.8033 25.2386 19.6723 25.5436C19.5413 25.8486 19.4723 26.1766 19.4694 26.5086C19.4665 26.8405 19.5298 27.1697 19.6555 27.477C19.7812 27.7842 19.9668 28.0634 20.2016 28.2981C20.4363 28.5328 20.7154 28.7185 21.0227 28.8442C21.3299 28.9699 21.6591 29.0331 21.9911 29.0302C22.323 29.0273 22.6511 28.9584 22.9561 28.8274C23.2611 28.6963 23.5369 28.5059 23.7676 28.2671L27.0001 25.0346L30.2326 28.2671C30.7041 28.7225 31.3356 28.9745 31.9911 28.9688C32.6465 28.9631 33.2736 28.7002 33.7371 28.2366C34.2006 27.7731 34.4635 27.1461 34.4692 26.4906C34.4749 25.8351 34.2229 25.2036 33.7676 24.7321L30.5351 21.4996L33.7676 18.2671C34.2229 17.7956 34.4749 17.1641 34.4692 16.5086C34.4635 15.8531 34.2006 15.2261 33.7371 14.7626C33.2736 14.299 32.6465 14.0361 31.9911 14.0304C31.3356 14.0247 30.7041 14.2767 30.2326 14.7321L27.0001 17.9646L23.7676 14.7321Z" fill="#1D2916"/>
</svg>
